<svg width="82" height="91" viewBox="0 0 82 91" fill="none" xmlns="http://www.w3.org/2000/svg">
<path d="M25.2129 41.6357H14.7402V52.1084H25.2129V41.6357Z" fill="black"/>
<path d="M46.1582 41.6357H35.6855V52.1084H46.1582V41.6357Z" fill="black"/>
<path d="M67.1035 41.6357H56.6309V52.1084H67.1035V41.6357Z" fill="black"/>
<path d="M25.2129 62.5811H14.7402V73.0537H25.2129V62.5811Z" fill="black"/>
<path d="M46.1582 62.5811H35.6855V73.0537H46.1582V62.5811Z" fill="black"/>
<path d="M67.1035 62.5811H56.6309V73.0537H67.1035V62.5811Z" fill="black"/>
<path d="M30.1238 11.6844H18.4395V2.58286C18.4395 1.15639 19.5958 0 21.0223 0H27.541C28.9674 0 30.1238 1.15639 30.1238 2.58286V11.6844Z" fill="black"/>
<path d="M64.0086 11.6844H52.3242V2.58286C52.3242 1.15639 53.4806 0 54.9071 0H61.4257C62.8522 0 64.0086 1.15639 64.0086 2.58286V11.6844Z" fill="black"/>
<path d="M76.3047 5.9363H65.6971V13.7003H50.1691V5.9363H31.8124V13.7003H16.2844V5.9363C11.6806 6.48415 -0.173057 3.56148 0.0538713 11.4757C-0.113365 23.3037 0.173378 71.7898 0.0528947 84.5246C0.0532609 87.5838 2.5333 90.0639 5.59251 90.0639H76.3047C79.3639 90.0639 81.8439 87.5838 81.8439 84.5246V29.3051V11.4755C81.8439 8.41634 79.3639 5.9363 76.3047 5.9363ZM75.9751 84.4113H5.86881V29.4948H75.9751V84.4113Z" fill="black"/>
</svg>
