<svg width="80" height="79" viewBox="0 0 80 79" fill="none" xmlns="http://www.w3.org/2000/svg">
<path d="M71.8812 4.9454H65.8929V2.6016C65.8929 1.1641 64.7249 0 63.2874 0C61.8499 0 60.6819 1.1641 60.6819 2.6016V4.9454H28.4549V2.6016C28.4549 1.1641 27.2869 0 25.8494 0C24.4119 0 23.2439 1.1641 23.2439 2.6016V4.9454H17.2244C12.8455 4.9454 9.29864 8.4962 9.29864 12.8751V15.7813C9.06036 26.4183 7.68534 48.5193 0.673642 60.1683V60.1644C-0.205268 61.6097 -0.224798 63.4183 0.618954 64.8832C1.47051 66.3832 3.06425 67.309 4.78695 67.3012H9.32995V70.6137C9.32995 74.9926 12.8769 78.5395 17.2558 78.5395H71.8808C76.2597 78.5395 79.8144 74.9926 79.8183 70.6137V12.8757C79.8143 8.49289 76.2601 4.9454 71.8812 4.9454ZM17.2252 10.1524L23.2447 10.1563V11.3125C23.2447 12.75 24.4127 13.9141 25.8502 13.9141C27.2877 13.9141 28.4557 12.75 28.4557 11.3125V10.1563H60.7487V11.3125H60.7448C60.7448 12.75 61.9128 13.9141 63.3503 13.9141C64.7878 13.9141 65.9558 12.75 65.9558 11.3125V10.1563H71.9441C73.448 10.1563 74.6668 11.3711 74.6746 12.8751C74.6746 12.8751 74.5496 19.2071 74.4051 21.9063H14.2881C14.4326 19.043 14.5069 16.4063 14.5381 14.1055V12.875C14.5381 11.3828 15.7373 10.1719 17.2256 10.1562L17.2252 10.1524ZM13.9557 27.1134H73.9947C73.026 38.9574 70.6314 54.0934 64.6197 62.0934H5.53774C10.8072 52.8122 13.0377 38.8824 13.9557 27.1134ZM71.8817 73.3324H17.2257C15.7257 73.3324 14.5069 72.1136 14.5069 70.6136V67.3011H64.9129C66.3738 67.3011 67.7527 66.6292 68.6512 65.4769C71.3074 61.766 73.327 57.6371 74.62 53.2579V70.6129C74.62 71.3356 74.3271 72.0309 73.8153 72.5387C73.2997 73.0504 72.6044 73.3363 71.8817 73.3324Z" fill="black"/>
</svg>
