<svg width="80" height="79" viewBox="0 0 80 79" fill="none" xmlns="http://www.w3.org/2000/svg">
<path d="M71.8807 4.94531H65.8924V7.76951C65.8924 9.20701 64.7244 10.375 63.2869 10.375C61.8494 10.375 60.6814 9.20701 60.6814 7.76951V4.94531H28.4544V7.76951C28.4544 9.20701 27.2864 10.375 25.8489 10.375C24.4114 10.375 23.2434 9.20701 23.2434 7.76951V4.94531H17.2239C12.845 4.94531 9.2981 8.49611 9.2981 12.875V15.8867C9.2981 17.625 9.18482 19.6562 9.06763 21.9062H79.8176V12.875C79.8137 8.49221 76.2596 4.94531 71.8807 4.94531Z" fill="black"/>
<path d="M8.71274 27.1133C7.81821 38.1253 5.69324 51.8203 0.669735 60.1643H0.673642C-0.205268 61.6096 -0.224798 63.4182 0.618954 64.8831C1.47051 66.3831 3.06425 67.3089 4.78695 67.3011H9.32995V70.6136C9.32995 74.9925 12.8769 78.5394 17.2558 78.5394H71.8808C76.2597 78.5394 79.8144 74.9925 79.8183 70.6136V27.1136L8.71274 27.1133ZM74.6107 70.6133C74.6029 72.1172 73.3841 73.3321 71.8802 73.3321H17.2242C15.7242 73.3321 14.5054 72.1133 14.5054 70.6133V67.3008H64.9114C66.3723 67.3008 67.7512 66.6289 68.6497 65.4766C71.3059 61.7657 73.3255 57.6368 74.6185 53.2576L74.6107 70.6133Z" fill="black"/>
<path d="M28.4548 2.6016C28.4548 1.1641 27.2868 0 25.8493 0C24.4118 0 23.2438 1.1641 23.2438 2.6016V4.9454H28.4508L28.4548 2.6016Z" fill="black"/>
<path d="M65.8918 2.6016C65.8918 1.1641 64.7238 0 63.2863 0C61.8488 0 60.6808 1.1641 60.6808 2.6016V4.9454H65.8878L65.8918 2.6016Z" fill="black"/>
</svg>
