<svg width="83" height="83" viewBox="0 0 83 83" fill="none" xmlns="http://www.w3.org/2000/svg">
<path d="M30.4692 82.8134H7.0312C3.1562 82.8134 0 79.6572 0 75.7822V72.6572C0 68.7822 3.1562 65.626 7.0312 65.626H30.4692C34.3442 65.626 37.5004 68.7822 37.5004 72.6572V75.7822C37.5004 79.6572 34.3442 82.8134 30.4692 82.8134ZM7.0312 70.3134C5.7343 70.3134 4.6874 71.3603 4.6874 72.6572V75.7822C4.6874 77.0791 5.7343 78.126 7.0312 78.126H30.4692C31.7661 78.126 32.813 77.0791 32.813 75.7822V72.6572C32.813 71.3603 31.7661 70.3134 30.4692 70.3134H7.0312ZM30.4692 57.8134H7.0312C3.1562 57.8134 0 54.6572 0 50.7822V7.0322C0 3.1572 3.1562 0.0010004 7.0312 0.0010004H30.4692C34.3442 0.0010004 37.5004 3.1572 37.5004 7.0322V50.7822C37.5004 54.6572 34.3442 57.8134 30.4692 57.8134ZM7.0312 4.6884C5.7343 4.6884 4.6874 5.7353 4.6874 7.0322V50.7822C4.6874 52.0791 5.7343 53.126 7.0312 53.126H30.4692C31.7661 53.126 32.813 52.0791 32.813 50.7822V7.0322C32.813 5.7353 31.7661 4.6884 30.4692 4.6884H7.0312ZM75.7812 37.5004H52.3432C48.4682 37.5004 45.312 34.3442 45.312 30.4692V7.0312C45.312 3.1562 48.4682 0 52.3432 0H75.7812C79.6562 0 82.8124 3.1562 82.8124 7.0312V30.4692C82.8124 34.3442 79.6562 37.5004 75.7812 37.5004ZM52.3432 4.6884C51.0463 4.6884 49.9994 5.7353 49.9994 7.0322V30.4702C49.9994 31.7671 51.0463 32.814 52.3432 32.814H75.7812C77.0781 32.814 78.125 31.7671 78.125 30.4702V7.0322C78.125 5.7353 77.0781 4.6884 75.7812 4.6884H52.3432ZM75.7812 82.8134H52.3432C48.4682 82.8134 45.312 79.6572 45.312 75.7822V52.3442C45.312 48.4692 48.4682 45.313 52.3432 45.313H75.7812C79.6562 45.313 82.8124 48.4692 82.8124 52.3442V75.7822C82.8124 79.6572 79.6562 82.8134 75.7812 82.8134ZM52.3432 50.0014C51.0463 50.0014 49.9994 51.0483 49.9994 52.3452V75.7832C49.9994 77.0801 51.0463 78.127 52.3432 78.127H75.7812C77.0781 78.127 78.125 77.0801 78.125 75.7832V52.3452C78.125 51.0483 77.0781 50.0014 75.7812 50.0014H52.3432Z" fill="black"/>
</svg>
