<svg width="90" height="90" viewBox="0 0 90 90" fill="none" xmlns="http://www.w3.org/2000/svg">
<path fill-rule="evenodd" clip-rule="evenodd" d="M3.692 51.548H36.87C37.8484 51.5459 38.7861 51.1564 39.478 50.4647C40.1698 49.7729 40.5596 48.8354 40.562 47.857V3.691C40.5596 2.71264 40.1698 1.77505 39.478 1.08334C38.7861 0.391631 37.8484 0.00211248 36.87 0H3.692C2.71364 0.00211248 1.77595 0.391631 1.08405 1.08334C0.39215 1.77505 0.00237751 2.71264 0 3.691V47.857C0.00237751 48.8354 0.39215 49.7729 1.08405 50.4647C1.77595 51.1564 2.71364 51.5459 3.692 51.548ZM86.308 0H53.13C52.1516 0.00211248 51.2139 0.391631 50.522 1.08334C49.8302 1.77505 49.4404 2.71264 49.438 3.691V25.884C49.4404 26.8624 49.8302 27.7999 50.522 28.4917C51.2139 29.1834 52.1516 29.5729 53.13 29.575H86.308C87.2864 29.5729 88.2241 29.1834 88.916 28.4917C89.6079 27.7999 89.9976 26.8624 90 25.884V3.691C89.9976 2.71264 89.6079 1.77505 88.916 1.08334C88.2241 0.391631 87.2864 0.00211248 86.308 0ZM86.308 38.452H53.13C52.1515 38.4541 51.2136 38.8438 50.5217 39.5357C49.8298 40.2276 49.4401 41.1655 49.438 42.144V86.309C49.4404 87.2874 49.8302 88.2249 50.522 88.9167C51.2139 89.6084 52.1516 89.9979 53.13 90H86.308C87.2864 89.9979 88.2241 89.6084 88.916 88.9167C89.6079 88.2249 89.9976 87.2874 90 86.309V42.144C89.9979 41.1655 89.6082 40.2276 88.9163 39.5357C88.2244 38.8438 87.2865 38.4541 86.308 38.452ZM3.692 90H36.87C37.8484 89.9979 38.7861 89.6084 39.478 88.9167C40.1698 88.2249 40.5596 87.2874 40.562 86.309V64.116C40.5596 63.1376 40.1698 62.2001 39.478 61.5083C38.7861 60.8166 37.8484 60.4271 36.87 60.425H3.692C2.71364 60.4271 1.77595 60.8166 1.08405 61.5083C0.39215 62.2001 0.00237751 63.1376 0 64.116V86.309C0.00237751 87.2874 0.39215 88.2249 1.08405 88.9167C1.77595 89.6084 2.71364 89.9979 3.692 90Z" fill="black"/>
</svg>
