<svg width="100" height="100" viewBox="0 0 100 100" fill="none" xmlns="http://www.w3.org/2000/svg">
<path d="M98.5464 39.3555L52.3944 0.894531L52.3905 0.890625C50.9647 -0.296875 48.8944 -0.296875 47.4686 0.890625L1.31664 39.3516L1.31273 39.3555C-0.25757 40.7305 -0.44507 43.1055 0.89086 44.711C2.23066 46.3165 4.60176 46.5587 6.23856 45.2618L7.62136 44.1095V88.4615C7.62136 94.8365 12.7894 100.001 19.1604 100.001H80.6994C87.0705 100.001 92.2384 94.8364 92.2384 88.4615V44.1095L93.6212 45.2618C95.2579 46.5587 97.629 46.3165 98.9689 44.711C100.305 43.1055 100.117 40.7305 98.5464 39.3555ZM61.4684 92.3085H38.3904V69.2305C38.3904 62.8594 43.5584 57.6915 49.9294 57.6915C56.3004 57.6915 61.4684 62.8595 61.4684 69.2305V92.3085Z" fill="black"/>
</svg>
