<svg width="100" height="100" viewBox="0 0 100 100" fill="none" xmlns="http://www.w3.org/2000/svg">
<path d="M98.5464 39.3555C100.117 40.7305 100.304 43.1055 98.9682 44.711C97.6284 46.3165 95.2573 46.5587 93.6205 45.2618L49.9295 8.84781L6.23854 45.2618C4.60184 46.5587 2.23074 46.3165 0.890837 44.711C-0.445063 43.1055 -0.257563 40.7305 1.31271 39.3555L47.4647 0.894531L47.4686 0.890625C48.8944 -0.296875 50.9647 -0.296875 52.3905 0.890625L98.5464 39.3555Z" fill="black"/>
<path d="M88.3903 34.6182C86.2653 34.6182 84.5465 36.337 84.5465 38.462V88.462C84.5465 89.4815 84.1402 90.462 83.4176 91.1808C82.6988 91.9034 81.7184 92.3097 80.6988 92.3097H69.1598V69.2317C69.1598 62.3606 65.4957 56.0127 59.5465 52.5797C53.5934 49.1422 46.2655 49.1422 40.3125 52.5797C34.3633 56.0133 30.6992 62.3609 30.6992 69.2317V92.3097H19.1602C17.0352 92.3097 15.3125 90.587 15.3125 88.462V38.462C15.3125 36.337 13.5937 34.6182 11.4687 34.6182C9.34367 34.6182 7.62097 36.337 7.62097 38.462V88.462C7.62097 94.837 12.789 100.001 19.16 100.001H80.699C87.0701 100.001 92.238 94.8369 92.238 88.462V38.462C92.238 37.4425 91.8317 36.4659 91.1091 35.7432C90.3903 35.0205 89.4099 34.6182 88.3903 34.6182ZM38.3903 69.2312C38.3903 62.8601 43.5583 57.6922 49.9293 57.6922C56.3003 57.6922 61.4683 62.8602 61.4683 69.2312V92.3092H38.3903V69.2312Z" fill="black"/>
</svg>
