<svg width="75" height="81" viewBox="0 0 75 81" fill="none" xmlns="http://www.w3.org/2000/svg">
<path d="M20 36.4444C20 36.1778 19.8222 36 19.5556 36H12.4444C12.1778 36 12 36.1778 12 36.4444V43.5556C12 43.8222 12.1778 44 12.4444 44H19.5556C19.8222 44 20 43.8222 20 43.5556V36.4444ZM16 42.6667C15.7333 42.6667 15.5556 42.4889 15.5556 42.2222C15.5556 41.9556 15.7333 41.7778 16 41.7778C16.2667 41.7778 16.4444 41.9556 16.4444 42.2222C16.4444 42.4889 16.2667 42.6667 16 42.6667ZM16.4444 40.4444C16.4444 40.7111 16.2667 40.8889 16 40.8889C15.7333 40.8889 15.5556 40.7111 15.5556 40.4444V38.2222C15.5556 37.9556 15.7333 37.7778 16 37.7778C16.2667 37.7778 16.4444 37.9556 16.4444 38.2222V40.4444Z" fill="black"/>
<path d="M40 36.4444C40 36.1778 39.8222 36 39.5556 36H32.4444C32.1778 36 32 36.1778 32 36.4444V43.5556C32 43.8222 32.1778 44 32.4444 44H39.5556C39.8222 44 40 43.8222 40 43.5556V36.4444ZM36 42.6667C35.7333 42.6667 35.5556 42.4889 35.5556 42.2222C35.5556 41.9556 35.7333 41.7778 36 41.7778C36.2667 41.7778 36.4444 41.9556 36.4444 42.2222C36.4444 42.4889 36.2667 42.6667 36 42.6667ZM36.4444 40.4444C36.4444 40.7111 36.2667 40.8889 36 40.8889C35.7333 40.8889 35.5556 40.7111 35.5556 40.4444V38.2222C35.5556 37.9556 35.7333 37.7778 36 37.7778C36.2667 37.7778 36.4444 37.9556 36.4444 38.2222V40.4444Z" fill="black"/>
<path d="M60 36.4444C60 36.1778 59.8222 36 59.5556 36H52.4444C52.1778 36 52 36.1778 52 36.4444V43.5556C52 43.8222 52.1778 44 52.4444 44H59.5556C59.8222 44 60 43.8222 60 43.5556V36.4444ZM56 42.6667C55.7333 42.6667 55.5556 42.4889 55.5556 42.2222C55.5556 41.9556 55.7333 41.7778 56 41.7778C56.2667 41.7778 56.4444 41.9556 56.4444 42.2222C56.4444 42.4889 56.2667 42.6667 56 42.6667ZM56.4444 40.4444C56.4444 40.7111 56.2667 40.8889 56 40.8889C55.7333 40.8889 55.5556 40.7111 55.5556 40.4444V38.2222C55.5556 37.9556 55.7333 37.7778 56 37.7778C56.2667 37.7778 56.4444 37.9556 56.4444 38.2222V40.4444Z" fill="black"/>
<path d="M20 55.4444C20 55.1778 19.8222 55 19.5556 55H12.4444C12.1778 55 12 55.1778 12 55.4444V62.5556C12 62.8222 12.1778 63 12.4444 63H19.5556C19.8222 63 20 62.8222 20 62.5556V55.4444ZM16 61.6667C15.7333 61.6667 15.5556 61.4889 15.5556 61.2222C15.5556 60.9556 15.7333 60.7778 16 60.7778C16.2667 60.7778 16.4444 60.9556 16.4444 61.2222C16.4444 61.4889 16.2667 61.6667 16 61.6667ZM16.4444 59.4444C16.4444 59.7111 16.2667 59.8889 16 59.8889C15.7333 59.8889 15.5556 59.7111 15.5556 59.4444V57.2222C15.5556 56.9556 15.7333 56.7778 16 56.7778C16.2667 56.7778 16.4444 56.9556 16.4444 57.2222V59.4444Z" fill="black"/>
<path d="M18.75 33.75H13.125C12.1308 33.7513 11.1778 34.1468 10.4748 34.8498C9.77184 35.5528 9.37632 36.5058 9.375 37.5V43.125C9.37632 44.1192 9.77184 45.0722 10.4748 45.7752C11.1778 46.4782 12.1308 46.8737 13.125 46.875H18.75C19.7442 46.8737 20.6972 46.4782 21.4002 45.7752C22.1032 45.0722 22.4987 44.1192 22.5 43.125V37.5C22.4987 36.5058 22.1032 35.5528 21.4002 34.8498C20.6972 34.1468 19.7442 33.7513 18.75 33.75ZM13.125 43.125V37.5H18.75V43.125H13.125Z" fill="black"/>
<path d="M18.75 52.5H13.125C12.1308 52.5013 11.1778 52.8968 10.4748 53.5998C9.77184 54.3028 9.37632 55.2558 9.375 56.25V61.875C9.37632 62.8692 9.77184 63.8222 10.4748 64.5252C11.1778 65.2282 12.1308 65.6237 13.125 65.625H18.75C19.7442 65.6237 20.6972 65.2282 21.4002 64.5252C22.1032 63.8222 22.4987 62.8692 22.5 61.875V56.25C22.4987 55.2558 22.1032 54.3028 21.4002 53.5998C20.6972 52.8968 19.7442 52.5013 18.75 52.5ZM13.125 61.875V56.25H18.75V61.875H13.125Z" fill="black"/>
<path d="M32.813 46.875H38.438C39.4322 46.8737 40.3852 46.4782 41.0882 45.7752C41.7912 45.0722 42.1867 44.1192 42.188 43.125V37.5C42.1867 36.5058 41.7912 35.5528 41.0882 34.8498C40.3852 34.1468 39.4322 33.7513 38.438 33.75H32.813C31.8187 33.7511 30.8654 34.1465 30.1622 34.8495C29.459 35.5525 29.0633 36.5057 29.062 37.5V43.125C29.0633 44.1193 29.459 45.0725 30.1622 45.7755C30.8654 46.4785 31.8187 46.8739 32.813 46.875ZM32.813 37.5H38.438V43.125H32.813V37.5Z" fill="black"/>
<path d="M71.25 50.673V16.873C71.2466 14.3878 70.2577 12.0055 68.5002 10.2484C66.7427 8.49129 64.3602 7.50291 61.875 7.5H58.125V5.625C58.125 4.13316 57.5324 2.70242 56.4775 1.64752C55.4226 0.592632 53.9918 0 52.5 0C51.0082 0 49.5774 0.592632 48.5225 1.64752C47.4676 2.70242 46.875 4.13316 46.875 5.625V7.5H24.375V5.625C24.375 4.13316 23.7824 2.70242 22.7275 1.64752C21.6726 0.592632 20.2418 0 18.75 0C17.2582 0 15.8274 0.592632 14.7725 1.64752C13.7176 2.70242 13.125 4.13316 13.125 5.625V7.5H9.375C6.88949 7.50291 4.50661 8.49157 2.74909 10.2491C0.991567 12.0066 0.00291121 14.3895 0 16.875V67.5C0.00291121 69.9855 0.991567 72.3684 2.74909 74.1259C4.50661 75.8834 6.88949 76.8721 9.375 76.875H45.048C48.6518 79.5784 53.1099 80.8911 57.6036 80.572C62.0974 80.2529 66.3252 78.3234 69.5108 75.1378C72.6964 71.9522 74.6259 67.7244 74.945 63.2306C75.2641 58.7369 73.9514 54.2788 71.248 50.675L71.25 50.673ZM50.625 5.625C50.625 5.12772 50.8225 4.65081 51.1742 4.29917C51.5258 3.94754 52.0027 3.75 52.5 3.75C52.9973 3.75 53.4742 3.94754 53.8258 4.29917C54.1775 4.65081 54.375 5.12772 54.375 5.625V13.125C54.375 13.6223 54.1775 14.0992 53.8258 14.4508C53.4742 14.8025 52.9973 15 52.5 15C52.0027 15 51.5258 14.8025 51.1742 14.4508C50.8225 14.0992 50.625 13.6223 50.625 13.125V5.625ZM16.875 5.625C16.875 5.12772 17.0725 4.65081 17.4242 4.29917C17.7758 3.94754 18.2527 3.75 18.75 3.75C19.2473 3.75 19.7242 3.94754 20.0758 4.29917C20.4275 4.65081 20.625 5.12772 20.625 5.625V13.125C20.625 13.6223 20.4275 14.0992 20.0758 14.4508C19.7242 14.8025 19.2473 15 18.75 15C18.2527 15 17.7758 14.8025 17.4242 14.4508C17.0725 14.0992 16.875 13.6223 16.875 13.125V5.625ZM9.375 11.25H13.125V13.125C13.125 14.6168 13.7176 16.0476 14.7725 17.1025C15.8274 18.1574 17.2582 18.75 18.75 18.75C20.2418 18.75 21.6726 18.1574 22.7275 17.1025C23.7824 16.0476 24.375 14.6168 24.375 13.125V11.25H46.875V13.125C46.875 14.6168 47.4676 16.0476 48.5225 17.1025C49.5774 18.1574 51.0082 18.75 52.5 18.75C53.9918 18.75 55.4226 18.1574 56.4775 17.1025C57.5324 16.0476 58.125 14.6168 58.125 13.125V11.25H61.875C63.3664 11.2516 64.7962 11.8447 65.8507 12.8993C66.9053 13.9538 67.4984 15.3836 67.5 16.875V24.375H3.75V16.875C3.75159 15.3836 4.34473 13.9538 5.39928 12.8993C6.45383 11.8447 7.88364 11.2516 9.375 11.25ZM3.75 67.5V28.125H67.5V46.911C65.7771 45.6025 63.84 44.6033 61.775 43.958C61.8394 43.6849 61.8729 43.4055 61.875 43.125V37.5C61.8737 36.5058 61.4782 35.5528 60.7752 34.8498C60.0722 34.1468 59.1192 33.7513 58.125 33.75H52.5C51.5058 33.7513 50.5528 34.1468 49.8498 34.8498C49.1468 35.5528 48.7513 36.5058 48.75 37.5V43.125C48.7498 43.6216 48.8487 44.1132 49.041 44.571C45.2304 46.1741 42.052 48.985 39.995 52.571C39.7905 52.5313 39.5832 52.5082 39.375 52.502H33.75C32.7562 52.5033 31.8034 52.8986 31.1005 53.6011C30.3976 54.3036 30.0019 55.2562 30 56.25V61.875C30.0013 62.8692 30.3968 63.8222 31.0998 64.5252C31.8028 65.2282 32.7558 65.6237 33.75 65.625H37.878C38.4409 68.3477 39.6053 70.9102 41.286 73.125H9.375C7.88364 73.1234 6.45383 72.5303 5.39928 71.4757C4.34473 70.4212 3.75159 68.9914 3.75 67.5ZM52.5 43.125V37.5H58.125V43.125H52.5ZM37.5 61.875H33.75V56.25H38.365C37.7911 58.0698 37.4994 59.9668 37.5 61.875ZM56.25 76.875C53.2833 76.875 50.3832 75.9953 47.9164 74.347C45.4497 72.6988 43.5271 70.3561 42.3918 67.6152C41.2565 64.8744 40.9594 61.8584 41.5382 58.9486C42.117 56.0389 43.5456 53.3662 45.6434 51.2684C47.7412 49.1706 50.4139 47.742 53.3236 47.1632C56.2334 46.5844 59.2494 46.8815 61.9902 48.0168C64.7311 49.1521 67.0738 51.0747 68.722 53.5414C70.3703 56.0082 71.25 58.9083 71.25 61.875C71.2455 65.8519 69.6637 69.6646 66.8516 72.4766C64.0396 75.2887 60.2269 76.8705 56.25 76.875Z" fill="black"/>
<path d="M62.3007 55.499L55.0417 63.591L52.5777 61.042C52.0037 60.447 51.0537 60.429 50.4577 61.006C49.8617 61.581 49.8457 62.531 50.4217 63.126L54.0047 66.833C54.0227 66.851 54.0427 66.863 54.0617 66.881C54.0697 66.889 54.0727 66.9 54.0817 66.907C54.0947 66.919 54.1107 66.922 54.1237 66.932C54.2517 67.04 54.3917 67.127 54.5407 67.186C54.5587 67.193 54.5767 67.196 54.5957 67.203C54.7527 67.257 54.9167 67.291 55.0817 67.291H55.0827H55.0847C55.2607 67.291 55.4337 67.254 55.5997 67.193C55.6177 67.186 55.6337 67.183 55.6507 67.176C55.8097 67.112 55.9567 67.014 56.0887 66.893C56.0997 66.882 56.1147 66.879 56.1257 66.869C56.1337 66.861 56.1357 66.851 56.1437 66.845C56.1617 66.826 56.1827 66.813 56.2007 66.793L64.5347 57.501C65.0887 56.884 65.0367 55.936 64.4207 55.383C63.7997 54.83 62.8527 54.882 62.3007 55.499Z" fill="black"/>
</svg>
