<svg width="72" height="75" viewBox="0 0 72 75" fill="none" xmlns="http://www.w3.org/2000/svg">
<path d="M39.6 49.1429H36.8V43.4286C36.8 43.0497 36.6525 42.6863 36.39 42.4184C36.1274 42.1505 35.7713 42 35.4 42C35.0287 42 34.6726 42.1505 34.41 42.4184C34.1475 42.6863 34 43.0497 34 43.4286V50.5714C33.9999 50.7591 34.036 50.9449 34.1064 51.1182C34.1767 51.2916 34.2798 51.4491 34.4098 51.5818C34.5399 51.7145 34.6942 51.8197 34.8641 51.8915C35.034 51.9632 35.2161 52.0001 35.4 52H39.6C39.9713 52 40.3274 51.8495 40.59 51.5816C40.8525 51.3137 41 50.9503 41 50.5714C41 50.1925 40.8525 49.8292 40.59 49.5613C40.3274 49.2934 39.9713 49.1429 39.6 49.1429Z" fill="black"/>
<path fill-rule="evenodd" clip-rule="evenodd" d="M35.7662 62.6993C28.7319 62.6993 23 56.9318 23 49.8497C23 42.7423 28.7301 37 35.7662 37C37.9939 37 40.1672 37.5742 42.0939 38.668C42.6644 38.9961 42.8546 39.7344 42.5286 40.2812C42.2298 40.8555 41.4963 41.0742 40.9258 40.7461C39.3774 39.8437 37.5844 39.3515 35.766 39.3515C30.0359 39.3515 25.3629 44.0527 25.3629 49.8497C25.3629 55.6447 30.0336 60.3478 35.766 60.3478C41.5234 60.3478 46.196 55.6466 46.196 49.8497C46.196 48.4004 45.8971 46.9512 45.3266 45.6114C45.055 45.0372 45.3266 44.3262 45.9243 44.0528C46.522 43.8067 47.2011 44.0802 47.4728 44.6817C48.1791 46.3224 48.5594 48.045 48.5594 49.8477C48.5594 56.928 42.8294 62.6974 35.7659 62.6974L35.7662 62.6993Z" fill="black"/>
<path d="M72 16.7303V66.1471C71.9972 68.4942 71.072 70.7443 69.4275 72.4039C67.7829 74.0635 65.5532 74.9971 63.2275 75H8.77253C6.44678 74.9971 4.21709 74.0635 2.57254 72.4039C0.927981 70.7443 0.00282673 68.4942 0 66.1471V16.7303C0.00205578 14.3827 0.926869 12.1319 2.57151 10.4716C4.21615 8.81138 6.44627 7.87735 8.77253 7.8745H10.1844V6.89455C10.206 5.05852 10.9439 3.30508 12.2381 2.01444C13.5322 0.723796 15.2784 0 17.0979 0C18.9174 0 20.6635 0.723796 21.9577 2.01444C23.2519 3.30508 23.9898 5.05852 24.0113 6.89455V7.8745H47.9887V6.89455C48.0102 5.05852 48.7481 3.30508 50.0423 2.01444C51.3365 0.723796 53.0826 0 54.9021 0C56.7216 0 58.4678 0.723796 59.7619 2.01444C61.0561 3.30508 61.794 5.05852 61.8156 6.89455V7.8745H63.2275C65.5537 7.87735 67.7839 8.81138 69.4285 10.4716C71.0731 12.1319 71.9979 14.3827 72 16.7303ZM51.8282 7.8745V12.7272C51.8282 13.5508 52.1524 14.3407 52.7295 14.9231C53.3067 15.5055 54.0894 15.8327 54.9055 15.8327C55.7217 15.8327 56.5044 15.5055 57.0815 14.9231C57.6586 14.3407 57.9828 13.5508 57.9828 12.7272V6.89553C57.9828 6.07191 57.6586 5.28202 57.0815 4.69964C56.5044 4.11725 55.7217 3.79007 54.9055 3.79007C54.0894 3.79007 53.3067 4.11725 52.7295 4.69964C52.1524 5.28202 51.8282 6.07191 51.8282 6.89553V7.8745ZM14.023 7.8745V12.7272C14.023 13.5508 14.3472 14.3407 14.9244 14.9231C15.5015 15.5055 16.2842 15.8327 17.1003 15.8327C17.9165 15.8327 18.6992 15.5055 19.2763 14.9231C19.8534 14.3407 20.1776 13.5508 20.1776 12.7272V6.89553C20.1776 6.07191 19.8534 5.28202 19.2763 4.69964C18.6992 4.11725 17.9165 3.79007 17.1003 3.79007C16.2842 3.79007 15.5015 4.11725 14.9244 4.69964C14.3472 5.28202 14.023 6.07191 14.023 6.89553V7.8745ZM3.83568 26.2103H68.1643V16.7303C68.163 15.4092 67.6426 14.1425 66.7171 13.2082C65.7916 12.2738 64.5366 11.7481 63.2275 11.7463H61.8156V12.7262C61.794 14.5622 61.0561 16.3157 59.7619 17.6063C58.4678 18.897 56.7216 19.6208 54.9021 19.6208C53.0826 19.6208 51.3365 18.897 50.0423 17.6063C48.7481 16.3157 48.0102 14.5622 47.9887 12.7262V11.7463H24.0113V12.7262C23.9898 14.5622 23.2519 16.3157 21.9577 17.6063C20.6635 18.897 18.9174 19.6208 17.0979 19.6208C15.2784 19.6208 13.5322 18.897 12.2381 17.6063C10.9439 16.3157 10.206 14.5622 10.1844 12.7262V11.7463H8.77253C7.46341 11.7481 6.20845 12.2738 5.28295 13.2082C4.35744 14.1425 3.83696 15.4092 3.83568 16.7303V26.2103ZM68.1643 66.1471V30.085H3.83568V66.1471C3.83747 67.4679 4.35818 68.7341 5.28363 69.668C6.20908 70.6019 7.46375 71.1274 8.77253 71.1292H63.2275C64.5363 71.1274 65.7909 70.6019 66.7164 69.668C67.6418 68.7341 68.1625 67.4679 68.1643 66.1471Z" fill="black"/>
</svg>
