<svg width="72" height="75" viewBox="0 0 72 75" fill="none" xmlns="http://www.w3.org/2000/svg">
<path d="M45.2498 47.7482H45.2494L38.2478 47.7496L38.2464 40.7496C38.2463 40.2855 38.0619 39.8405 37.7337 39.5123C37.4055 39.1843 36.9604 38.9999 36.4964 39H36.4962C36.0321 39.0001 35.5869 39.1845 35.2588 39.5128C34.9306 39.8411 34.7463 40.2863 34.7464 40.7504L34.7479 47.7504L27.7498 47.7518C27.1246 47.7519 26.5469 48.0855 26.2343 48.627C25.9218 49.1685 25.9219 49.8356 26.2346 50.377C26.5472 50.9184 27.125 51.2519 27.7502 51.2518H27.7506L34.7485 51.2504L34.7499 58.2504C34.75 58.7145 34.9344 59.1595 35.2626 59.4877C35.5908 59.8157 36.0358 60.0001 36.4999 60H36.5003C36.9645 59.9999 37.4095 59.8154 37.7377 59.4872C38.0657 59.1588 38.25 58.7137 38.2499 58.2496L38.2484 51.2496L45.2502 51.2482C45.8754 51.2481 46.4531 50.9145 46.7657 50.373C47.0782 49.8315 47.0781 49.1644 46.7654 48.623C46.4528 48.0816 45.875 47.7481 45.2498 47.7482Z" fill="black"/>
<path d="M72 16.7303V66.1471C71.9972 68.4942 71.072 70.7443 69.4275 72.4039C67.7829 74.0635 65.5532 74.9971 63.2275 75H8.77253C6.44678 74.9971 4.21709 74.0635 2.57254 72.4039C0.927981 70.7443 0.00282673 68.4942 0 66.1471V16.7303C0.00205578 14.3827 0.926869 12.1319 2.57151 10.4716C4.21615 8.81138 6.44627 7.87735 8.77253 7.8745H10.1844V6.89455C10.206 5.05852 10.9439 3.30508 12.2381 2.01444C13.5322 0.723796 15.2784 0 17.0979 0C18.9174 0 20.6635 0.723796 21.9577 2.01444C23.2519 3.30508 23.9898 5.05852 24.0113 6.89455V7.8745H47.9887V6.89455C48.0102 5.05852 48.7481 3.30508 50.0423 2.01444C51.3365 0.723796 53.0826 0 54.9021 0C56.7216 0 58.4678 0.723796 59.7619 2.01444C61.0561 3.30508 61.794 5.05852 61.8156 6.89455V7.8745H63.2275C65.5537 7.87735 67.7839 8.81138 69.4285 10.4716C71.0731 12.1319 71.9979 14.3827 72 16.7303ZM51.8282 7.8745V12.7272C51.8282 13.5508 52.1524 14.3407 52.7295 14.9231C53.3067 15.5055 54.0894 15.8327 54.9055 15.8327C55.7217 15.8327 56.5044 15.5055 57.0815 14.9231C57.6586 14.3407 57.9828 13.5508 57.9828 12.7272V6.89553C57.9828 6.07191 57.6586 5.28202 57.0815 4.69964C56.5044 4.11725 55.7217 3.79007 54.9055 3.79007C54.0894 3.79007 53.3067 4.11725 52.7295 4.69964C52.1524 5.28202 51.8282 6.07191 51.8282 6.89553V7.8745ZM14.023 7.8745V12.7272C14.023 13.5508 14.3472 14.3407 14.9244 14.9231C15.5015 15.5055 16.2842 15.8327 17.1003 15.8327C17.9165 15.8327 18.6992 15.5055 19.2763 14.9231C19.8534 14.3407 20.1776 13.5508 20.1776 12.7272V6.89553C20.1776 6.07191 19.8534 5.28202 19.2763 4.69964C18.6992 4.11725 17.9165 3.79007 17.1003 3.79007C16.2842 3.79007 15.5015 4.11725 14.9244 4.69964C14.3472 5.28202 14.023 6.07191 14.023 6.89553V7.8745ZM3.83568 26.2103H68.1643V16.7303C68.163 15.4092 67.6426 14.1425 66.7171 13.2082C65.7916 12.2738 64.5366 11.7481 63.2275 11.7463H61.8156V12.7262C61.794 14.5622 61.0561 16.3157 59.7619 17.6063C58.4678 18.897 56.7216 19.6208 54.9021 19.6208C53.0826 19.6208 51.3365 18.897 50.0423 17.6063C48.7481 16.3157 48.0102 14.5622 47.9887 12.7262V11.7463H24.0113V12.7262C23.9898 14.5622 23.2519 16.3157 21.9577 17.6063C20.6635 18.897 18.9174 19.6208 17.0979 19.6208C15.2784 19.6208 13.5322 18.897 12.2381 17.6063C10.9439 16.3157 10.206 14.5622 10.1844 12.7262V11.7463H8.77253C7.46341 11.7481 6.20845 12.2738 5.28295 13.2082C4.35744 14.1425 3.83696 15.4092 3.83568 16.7303V26.2103ZM68.1643 66.1471V30.085H3.83568V66.1471C3.83747 67.4679 4.35818 68.7341 5.28363 69.668C6.20908 70.6019 7.46375 71.1274 8.77253 71.1292H63.2275C64.5363 71.1274 65.7909 70.6019 66.7164 69.668C67.6418 68.7341 68.1625 67.4679 68.1643 66.1471Z" fill="black"/>
</svg>
