<svg width="465" height="302" viewBox="0 0 465 302" fill="none" xmlns="http://www.w3.org/2000/svg">
<path fill-rule="evenodd" clip-rule="evenodd" d="M157.4 301.79H307.15C328.79 301.79 346.33 284.24 346.33 262.6C346.33 261.92 346.32 261.24 346.28 260.57V260.53V260.5L346.27 260.46V260.42V260.39V260.35V260.31L346.26 260.28C342.4 200.87 292.61 153.46 232.28 153.46C171.94 153.46 122.15 200.87 118.29 260.28V260.31V260.35V260.39L118.28 260.42V260.46V260.5V260.53V260.57C118.24 261.24 118.22 261.92 118.22 262.6C118.22 284.24 135.76 301.79 157.4 301.79ZM106.28 274.57H32.12V274.56C14.38 274.56 0 260.19 0 242.45C0 241.89 0.0200031 241.34 0.0500031 240.78V240.75V240.72V240.69V240.66V240.63L0.0599976 240.6V240.58V240.54C3.23 191.86 44.03 153 93.48 153C114.2 153 133.4 159.82 148.95 171.32C123.94 192.97 107.32 224.16 105.01 259.33L105 259.44L104.97 259.93C104.93 260.82 104.9 261.71 104.9 262.6C104.9 266.72 105.38 270.72 106.28 274.57ZM93.48 27.22C62.59 27.22 37.54 52.27 37.54 83.16C37.54 114.06 62.59 139.1 93.48 139.1C124.38 139.1 149.43 114.06 149.43 83.16C149.43 52.27 124.38 27.22 93.48 27.22ZM358.28 274.57H432.44V274.56C450.17 274.56 464.55 260.19 464.55 242.45C464.55 241.89 464.54 241.34 464.51 240.78V240.75V240.72L464.5 240.69V240.66V240.63V240.6V240.58V240.54C461.33 191.86 420.53 153 371.07 153C350.36 153 331.16 159.82 315.61 171.32C340.61 192.97 357.24 224.16 359.55 259.33L359.56 259.44L359.58 259.93C359.63 260.82 359.65 261.71 359.65 262.6C359.65 266.72 359.18 270.72 358.28 274.57ZM371.07 27.22C401.97 27.22 427.01 52.27 427.01 83.16C427.01 114.06 401.97 139.1 371.07 139.1C340.18 139.1 315.13 114.06 315.13 83.16C315.13 52.27 340.18 27.22 371.07 27.22ZM232.28 0C269.97 0 300.53 30.56 300.53 68.25C300.53 105.95 269.97 136.51 232.28 136.51C194.58 136.51 164.02 105.95 164.02 68.25C164.02 30.56 194.58 0 232.28 0Z" fill="black"/>
</svg>
