<svg width="86" height="86" viewBox="0 0 86 86" fill="none" xmlns="http://www.w3.org/2000/svg">
<path d="M43 4.89294e-06C31.6002 0.0146648 20.6715 4.54971 12.6106 12.6106C4.54974 20.6715 0.0146943 31.6002 3.4372e-05 43C-0.0119543 52.4324 3.11251 61.6011 8.88179 69.0633C8.97984 69.4874 9.20408 69.8718 9.52496 70.1659C9.66317 70.2888 9.81778 70.3918 9.98436 70.4722C14.6124 76.0333 20.5693 80.3362 27.3032 82.982C34.0371 85.6278 41.3299 86.5309 48.5057 85.6075C55.6815 84.6842 62.5081 81.9643 68.3528 77.6999C74.1975 73.4356 78.8711 67.7648 81.9405 61.2132C85.0099 54.6616 86.3757 47.4411 85.9114 40.221C85.447 33.001 83.1676 26.0149 79.2842 19.9105C75.4009 13.806 70.0394 8.78061 63.6966 5.30009C57.3538 1.81957 50.235 -0.00344697 43 4.89294e-06ZM43 4.59402C49.9827 4.59792 56.8324 6.50438 62.8131 10.1086C68.7937 13.7127 73.6793 18.8784 76.9448 25.0505C80.2104 31.2225 81.7324 38.1678 81.3475 45.1399C80.9625 52.112 78.6851 58.8474 74.76 64.6225C66.1907 56.5352 54.841 52.0507 43.0582 52.0963C31.2755 52.1419 19.9609 56.7142 11.4544 64.8675C6.96658 58.4605 4.57027 50.8223 4.59405 43C4.59993 32.8159 8.64815 23.0506 15.8494 15.8494C23.0506 8.64812 32.8159 4.5999 43 4.59402ZM27.9623 30.1061C27.9623 27.1319 28.8442 24.2245 30.4966 21.7516C32.149 19.2786 34.4975 17.3512 37.2453 16.213C39.9931 15.0749 43.0167 14.7771 45.9337 15.3573C48.8508 15.9375 51.5302 17.3698 53.6333 19.4728C55.7364 21.5759 57.1686 24.2554 57.7488 27.1724C58.329 30.0894 58.0312 33.113 56.8931 35.8608C55.7549 38.6086 53.8275 40.9572 51.3545 42.6095C48.8816 44.2619 45.9742 45.1438 43 45.1438C39.0117 45.1438 35.1868 43.5595 32.3667 40.7394C29.5466 37.9193 27.9623 34.0944 27.9623 30.1061Z" fill="black"/>
</svg>
