<svg width="67" height="75" viewBox="0 0 67 75" fill="none" xmlns="http://www.w3.org/2000/svg">
<path d="M33.3318 0C31.6052 0 29.9099 0.45312 28.4099 1.3086L4.6719 14.8746C1.7852 16.523 0 19.5973 0 22.9176V52.0816C0 55.4019 1.7852 58.4761 4.6719 60.1246L28.4099 73.6906C29.9099 74.5461 31.6052 74.9992 33.3318 74.9992C35.0584 74.9992 36.7537 74.5461 38.2537 73.6906L61.9917 60.1246C64.8784 58.4762 66.6636 55.4019 66.6636 52.0816V22.9176C66.6636 19.5973 64.8784 16.5231 61.9917 14.8746L38.2537 1.3086C36.7537 0.45313 35.0584 0 33.3318 0ZM33.3318 27.082C39.0584 27.082 43.7498 31.7734 43.7498 37.5C43.7498 43.2266 39.0584 47.918 33.3318 47.918C27.6052 47.918 22.9138 43.2266 22.9138 37.5C22.9138 31.7734 27.6052 27.082 33.3318 27.082Z" fill="black"/>
</svg>
