<svg width="67" height="75" viewBox="0 0 67 75" fill="none" xmlns="http://www.w3.org/2000/svg">
<path d="M33.3319 0C31.6053 0 29.91 0.45312 28.41 1.3086L4.668 14.8746C1.7852 16.523 0 19.5973 0 22.9176V52.0856C0 55.4059 1.7891 58.4801 4.6719 60.1247L28.4099 73.6907C29.9099 74.5462 31.6052 74.9993 33.3318 74.9993C35.0584 74.9993 36.7537 74.5462 38.2537 73.6907L61.9917 60.1247C64.8784 58.4763 66.6636 55.402 66.6636 52.0817V22.9137C66.6636 19.5973 64.8784 16.5231 61.9917 14.8746L38.2537 1.3086C36.7537 0.45313 35.0585 0 33.3319 0ZM33.3319 4.168C34.3358 4.168 35.3163 4.42581 36.1874 4.92581L59.9254 18.4878C61.5192 19.398 62.4996 21.0855 62.4996 22.9175V52.0855C62.4996 53.9175 61.5191 55.605 59.9293 56.5113L36.1913 70.0773C35.3163 70.5734 34.3358 70.8312 33.3319 70.8312C32.328 70.8312 31.3475 70.5734 30.4764 70.0773L6.7384 56.5113C5.1446 55.6011 4.1642 53.9136 4.1642 52.0816V22.9136C4.1642 21.0855 5.14467 19.398 6.7384 18.4878L30.4764 4.92181C31.3475 4.42572 32.328 4.168 33.3319 4.168Z" fill="black"/>
<path d="M33.3321 27.082C27.6055 27.082 22.9141 31.7695 22.9141 37.5C22.9141 43.2266 27.6016 47.918 33.3321 47.918C39.0587 47.918 43.7501 43.2305 43.7501 37.5C43.7501 31.7734 39.0626 27.082 33.3321 27.082ZM33.3321 31.25C36.8087 31.25 39.5821 34.0234 39.5821 37.5C39.5821 40.9766 36.8087 43.75 33.3321 43.75C29.8555 43.75 27.0821 40.9766 27.0821 37.5C27.0821 34.0234 29.8555 31.25 33.3321 31.25Z" fill="black"/>
</svg>
