<svg width="89" height="92" viewBox="0 0 89 92" fill="none" xmlns="http://www.w3.org/2000/svg">
<path d="M24.6554 20.7998C24.6554 24.7158 25.8166 28.5439 27.9922 31.8C30.1679 35.056 33.2602 37.5938 36.8781 39.0924C40.496 40.591 44.4771 40.9831 48.3179 40.2192C52.1587 39.4552 55.6867 37.5694 58.4557 34.8004C61.2248 32.0313 63.1105 28.5033 63.8745 24.6625C64.6385 20.8218 64.2464 16.8407 62.7478 13.2227C61.2492 9.6048 58.7114 6.5125 55.4553 4.33687C52.1993 2.16124 48.3712 1 44.4552 1C39.2057 1.00583 34.1729 3.09374 30.461 6.80566C26.7491 10.5176 24.6612 15.5504 24.6554 20.7998ZM60.6554 20.7998C60.6554 24.0039 59.7052 27.136 57.9251 29.8002C56.145 32.4643 53.6149 34.5407 50.6547 35.7668C47.6945 36.993 44.4372 37.3138 41.2947 36.6887C38.1521 36.0636 35.2655 34.5207 32.9999 32.2551C30.7342 29.9894 29.1913 27.1028 28.5662 23.9603C27.9411 20.8178 28.262 17.5605 29.4881 14.6003C30.7143 11.6401 32.7907 9.10994 35.4548 7.32984C38.1189 5.54974 41.2511 4.59961 44.4552 4.59961C48.7502 4.60454 52.8679 6.31292 55.905 9.34998C58.942 12.387 60.6504 16.5048 60.6554 20.7998ZM44.4552 45.4004C33.889 45.4292 23.687 49.2642 15.7182 56.2028C7.74942 63.1414 2.54752 72.7189 1.0655 83.1807C0.930275 84.1531 1.00497 85.1432 1.28455 86.0844C1.56414 87.0256 2.04213 87.8959 2.68634 88.6368C3.33054 89.3777 4.12602 89.972 5.0192 90.3796C5.91238 90.7873 6.88253 90.9988 7.86433 91H81.046C82.0278 90.9988 82.9979 90.7873 83.8911 90.3796C84.7843 89.972 85.5798 89.3777 86.224 88.6368C86.8682 87.8959 87.3462 87.0256 87.6257 86.0844C87.9053 85.1432 87.98 84.1531 87.8448 83.1807C86.3628 72.7189 81.1609 63.1414 73.1921 56.2028C65.2234 49.2642 55.0213 45.4292 44.4552 45.4004ZM83.4996 86.2832C83.196 86.6362 82.8194 86.9189 82.3957 87.1118C81.972 87.3047 81.5115 87.4032 81.046 87.4004H7.86433C7.39882 87.4032 6.93827 87.3047 6.5146 87.1118C6.09092 86.9189 5.71427 86.6362 5.41072 86.2832C5.10177 85.9287 4.87239 85.5121 4.73805 85.0615C4.6037 84.6109 4.56751 84.1367 4.63191 83.6709C5.96793 74.0589 10.7354 65.2544 18.0546 58.8822C25.3738 52.51 34.7507 49 44.4552 49C54.1596 49 63.5365 52.51 70.8557 58.8822C78.1749 65.2544 82.9424 74.0589 84.2784 83.6709C84.3428 84.1367 84.3066 84.6109 84.1723 85.0615C84.0379 85.5121 83.8085 85.9287 83.4996 86.2832Z" fill="black" stroke="black" stroke-width="2"/>
</svg>
